<?xml version="1.0" standalone="no"?><!DOCTYPE svg PUBLIC "-//W3C//DTD SVG 1.1//EN" "http://www.w3.org/Graphics/SVG/1.1/DTD/svg11.dtd"><svg t="1759592207434" class="icon" viewBox="0 0 1024 1024" version="1.1" xmlns="http://www.w3.org/2000/svg" p-id="2673" xmlns:xlink="http://www.w3.org/1999/xlink" width="200" height="200"><path d="M141.44 725.12V593.28c0-3.2 0-7.04-1.28-10.24-0.64-3.2-1.28-7.04-3.2-10.24-1.28-3.2-3.2-5.76-5.12-8.96a31.36 31.36 0 0 0-7.68-8.32 41.088 41.088 0 0 0-8.32-6.4c-3.2-1.92-7.04-3.84-10.24-5.12-3.84-1.28-7.04-1.92-10.88-2.56-3.84-1.28-7.68-1.28-11.52-1.28H64v-56.96h19.2c3.84 0 7.68 0 11.52-1.28 3.84-0.64 7.04-1.28 10.88-2.56 3.2-1.28 7.04-3.2 10.24-5.12s5.76-3.84 8.32-6.4a31.36 31.36 0 0 0 7.68-8.32c1.92-3.2 3.84-5.76 5.12-8.96 1.92-3.2 2.56-7.04 3.2-10.24 1.28-3.2 1.28-7.04 1.28-10.24V298.24c0-3.2 0.64-7.04 0.64-10.24 0.64-3.84 1.28-7.04 1.92-10.24a48 48 0 0 1 2.56-10.24c1.28-3.2 2.56-7.04 3.84-10.24 1.28-3.2 3.2-6.4 5.12-8.96 1.92-3.2 3.84-6.4 5.76-8.96 1.92-3.2 4.48-5.76 7.04-8.96 1.92-2.56 4.48-5.12 7.68-7.68 2.56-2.56 5.12-4.48 8.32-7.04 3.2-1.92 5.76-3.84 8.96-5.76 3.2-1.92 7.04-3.84 10.24-5.76 3.2-1.28 6.4-3.2 10.24-4.48 3.2-1.28 7.04-2.56 10.88-3.2 3.84-1.28 7.04-1.92 10.88-2.56L247.04 192h50.56v71.04h-39.04c-2.56 0-5.12 0-7.68 0.64-2.56 0-5.12 0.64-7.04 1.92a35.2 35.2 0 0 0-12.8 7.68c-1.92 1.28-3.84 3.2-5.12 5.12-1.28 1.92-2.56 4.48-3.2 6.4-1.28 1.92-1.92 4.48-2.56 6.4-0.64 2.56-0.64 5.12-0.64 7.04v145.92c0 3.84-0.64 7.68-1.28 10.88-0.64 3.84-1.28 7.68-2.56 10.88-1.28 3.84-2.56 7.04-4.48 10.24-1.92 3.2-3.84 6.4-6.4 9.6-2.56 3.2-5.12 5.76-7.68 8.32l-9.6 7.68c-3.2 1.92-6.4 3.84-10.24 5.76-3.84 1.28-7.68 3.2-11.52 4.48 3.84 0.64 7.68 2.56 11.52 3.84 3.84 1.92 7.04 3.84 10.24 5.76l9.6 7.68c2.56 2.56 5.12 5.12 7.68 8.32 2.56 3.2 4.48 6.4 6.4 9.6 1.92 3.2 3.2 6.4 4.48 10.24 1.28 3.2 1.92 7.04 2.56 10.88 0.64 3.2 1.28 7.04 1.28 10.88v145.92c0 1.92 0 4.48 0.64 7.04 0.64 1.92 1.28 4.48 2.56 6.4 0.64 1.92 1.92 4.48 3.2 6.4 1.28 1.92 3.2 3.84 5.12 5.12a35.2 35.2 0 0 0 12.8 7.68c1.92 1.28 4.48 1.92 7.04 1.92 2.56 0.64 5.12 0.64 7.68 0.64h39.04V832h-39.04c-3.84 0-7.68-0.64-11.52-0.64l-11.52-1.92c-3.84-0.64-7.04-1.28-10.88-2.56a54.08 54.08 0 0 1-10.88-3.2c-3.84-1.28-7.04-3.2-10.24-4.48-3.2-1.92-7.04-3.84-10.24-5.76s-5.76-3.84-8.96-5.76c-3.2-2.56-5.76-4.48-8.32-7.04a43.456 43.456 0 0 1-7.68-7.68c-2.56-3.2-5.12-5.76-7.04-8.96-1.92-2.56-3.84-5.76-5.76-8.96a40.832 40.832 0 0 1-5.12-8.96c-1.28-3.2-2.56-7.04-3.84-10.24a48 48 0 0 1-2.56-10.24c-0.64-3.2-1.28-6.4-1.92-10.24 0-3.2-0.64-7.04-0.64-10.24z m740.48-131.84v131.84c0 3.2-0.64 7.04-0.64 10.24-0.64 3.84-1.28 7.04-1.92 10.24a48 48 0 0 1-2.56 10.24c-1.28 3.2-2.56 7.04-3.84 10.24-1.28 3.2-3.2 6.4-5.12 8.96-1.92 3.2-3.84 6.4-5.76 8.96-1.92 3.2-4.48 5.76-7.04 8.96-1.92 2.56-4.48 5.12-7.68 7.68-2.56 2.56-5.12 4.48-8.32 7.04-3.2 1.92-5.76 3.84-8.96 5.76-3.2 1.92-6.4 3.84-10.24 5.76-3.2 1.28-6.4 3.2-10.24 4.48-3.2 1.28-7.04 2.56-10.88 3.2-3.84 1.28-7.04 1.92-10.88 2.56l-11.52 1.92c-3.84 0-7.68 0.64-11.52 0.64h-39.04v-71.68h39.04c2.56 0 5.12 0 7.68-0.64 2.56 0 5.12-0.64 7.04-1.92a35.2 35.2 0 0 0 12.8-7.68c1.92-1.28 3.84-3.2 5.12-5.12 1.28-1.92 2.56-4.48 3.2-6.4 1.28-1.92 1.92-4.48 2.56-6.4 0.64-2.56 0.64-5.12 0.64-7.04V579.2c0-3.84 0.64-7.68 1.28-10.88 0.64-3.84 1.28-7.68 2.56-10.88 1.28-3.84 2.56-7.04 4.48-10.24 1.92-3.2 3.84-6.4 6.4-9.6 2.56-3.2 5.12-5.76 7.68-8.32l9.6-7.68c3.2-1.92 6.4-3.84 10.24-5.76 3.84-1.28 7.68-3.2 11.52-3.84-3.84-1.28-7.68-3.2-11.52-4.48a146.56 146.56 0 0 1-10.24-5.76l-9.6-7.68c-2.56-2.56-5.12-5.12-7.68-8.32-2.56-3.2-4.48-6.4-6.4-9.6a49.536 49.536 0 0 1-4.48-10.24c-1.28-3.2-1.92-7.04-2.56-10.88a56.32 56.32 0 0 1-1.28-10.88V298.24c0-1.92 0-4.48-0.64-7.04-0.64-1.92-1.28-4.48-2.56-6.4a29.888 29.888 0 0 0-3.2-6.4 19.456 19.456 0 0 0-5.12-5.12 35.2 35.2 0 0 0-12.8-7.68 12.928 12.928 0 0 0-7.04-1.92c-2.56-0.64-5.12-0.64-7.68-0.64h-39.04V192h50.56l11.52 1.92c3.84 0.64 7.04 1.28 10.88 2.56 3.84 0.64 7.68 1.92 10.88 3.2 3.84 1.28 7.04 3.2 10.24 4.48 3.84 1.92 7.04 3.84 10.24 5.76s5.76 3.84 8.96 5.76c3.2 2.56 5.76 4.48 8.32 7.04 3.2 2.56 5.76 5.12 7.68 7.68 2.56 3.2 5.12 5.76 7.04 8.96 1.92 2.56 3.84 5.76 5.76 8.96 1.92 2.56 3.84 5.76 5.12 8.96 1.28 3.2 2.56 7.04 3.84 10.24 1.28 3.2 1.92 6.4 2.56 10.24 0.64 3.2 1.28 6.4 1.92 10.24 0 3.2 0.64 7.04 0.64 10.24v131.84c0 3.2 0 7.04 1.28 10.24 0.64 3.2 1.28 7.04 3.2 10.24 1.28 3.2 3.2 5.76 5.12 8.96 1.92 3.2 4.48 5.76 7.68 8.32 2.56 2.56 5.12 4.48 8.32 6.4s7.04 3.84 10.24 5.12c3.84 1.28 7.04 1.92 10.88 2.56 3.84 1.28 7.68 1.28 11.52 1.28H960v56.96h-19.84c-3.84 0-7.68 0-11.52 1.28-3.84 0.64-7.04 1.28-10.88 2.56-3.2 1.28-7.04 3.2-10.24 5.12s-5.76 3.84-8.32 6.4a31.36 31.36 0 0 0-7.68 8.32c-1.92 3.2-3.84 5.76-5.12 8.96-1.92 3.2-2.56 7.04-3.2 10.24-1.28 3.2-1.28 7.04-1.28 10.24z" fill="#0061FF" p-id="2674"></path><path d="M512 704c1.28 0 2.56-0.64 3.84-0.64 1.28 0 2.56-0.64 3.84-1.28a56.32 56.32 0 0 0 6.4-3.84 44.8 44.8 0 0 0 5.12-6.4c0.64-1.28 2.56-6.4 2.56-7.68 10.24-60.8 19.2-92.16 38.4-112 19.2-19.2 50.56-28.16 111.36-38.4 1.28 0 3.2-0.64 4.48-0.64 0.64-0.64 5.76-3.2 7.04-3.84 0.64-1.28 4.48-5.12 5.12-5.76 0.64-1.28 3.2-6.4 3.2-7.68 0-1.28 0-2.56 0.64-3.84 0-1.92-0.64-3.2-0.64-4.48 0-1.28-0.64-2.56-1.28-3.84l-3.84-7.04c-1.28-0.64-5.76-3.84-7.04-4.48-1.28-0.64-6.4-1.92-7.68-2.56-60.8-10.24-92.16-19.2-111.36-38.4-19.2-19.84-28.16-51.2-38.4-112C531.84 328.32 523.52 320 512 320c-11.52 0-20.48 8.32-22.4 19.2-10.24 60.8-19.2 92.16-38.4 112-19.2 19.2-50.56 28.16-111.36 38.4-1.28 0.64-2.56 0.64-3.84 1.28-1.28 0-6.4 2.56-7.68 3.2-0.64 1.28-4.48 5.12-5.12 5.76-0.64 1.28-3.2 6.4-3.2 7.68V512c0 11.52 8.96 20.48 19.84 21.76 60.8 10.24 92.16 19.2 111.36 38.4 19.2 19.2 28.16 50.56 38.4 112 0.64 3.2 1.28 5.12 2.56 7.68 1.28 2.56 3.2 4.48 5.12 6.4s4.48 3.2 6.4 3.84c2.56 1.28 5.12 1.28 8.32 1.92z" fill="#13FFB6" p-id="2675"></path></svg>